<svg xmlns="http://www.w3.org/2000/svg" version="1.1" xmlns:xlink="http://www.w3.org/1999/xlink" xmlns:svgjs="http://svgjs.dev/svgjs" width="2000" height="1247" viewBox="0 0 2000 1247"><g transform="matrix(1,0,0,1,-1.2121212121212466,0.504858299595071)"><svg viewBox="0 0 396 247" data-background-color="#ffffff" preserveAspectRatio="xMidYMid meet" height="1247" width="2000" xmlns="http://www.w3.org/2000/svg" xmlns:xlink="http://www.w3.org/1999/xlink"><g id="tight-bounds" transform="matrix(1,0,0,1,0.2400000000000091,-0.09999999999999432)"><svg viewBox="0 0 395.52 247.2" height="247.2" width="395.52"><g><svg></svg></g><g><svg viewBox="0 0 395.52 247.2" height="247.2" width="395.52"><g transform="matrix(1,0,0,1,85.87016727316825,47.215199999999996)"><svg viewBox="0 0 223.77966545366348 152.7696" height="152.7696" width="223.77966545366348"><g><svg viewBox="0 0 223.77966545366348 152.7696" height="152.7696" width="223.77966545366348"><g><svg viewBox="0 0 244.43135999999996 166.86807096147027" height="152.7696" width="223.77966545366348"><g><svg viewBox="0 0 244.43135999999996 166.86807096147027" height="166.86807096147027" width="244.43135999999996"><g><svg viewBox="0 0 244.43135999999996 166.86807096147027" height="166.86807096147027" width="244.43135999999996"><g><svg viewBox="0 0 244.43135999999996 114.2974810140845" height="114.2974810140845" width="244.43135999999996"><g transform="matrix(1,0,0,1,0,0)"><svg width="244.43135999999996" viewBox="3 -35.25 88.73999786376953 41.5" height="114.2974810140845" data-palette-color="#111111"><path d="M3-34.55L9.35-34.55 9.35 0 3 0 3-34.55ZM32.55-2.1Q35.35-2.05 37.4-1.18 39.45-0.3 41.3 1.4L41.3 1.4 37.3 6.25Q35.15 3.4 32.67 1.98 30.2 0.55 26.45 0.55L26.45 0.55Q20.7 0.55 17.4-3.98 14.1-8.5 14.1-17.25L14.1-17.25Q14.1-26.1 17.42-30.68 20.75-35.25 26.8-35.25L26.8-35.25Q32.85-35.25 36.17-30.75 39.5-26.25 39.5-17.3L39.5-17.3Q39.5-11.1 37.65-7.6 35.8-4.1 32.55-2.1L32.55-2.1ZM20.8-17.25Q20.8-10.1 22.3-7.13 23.8-4.15 26.8-4.15L26.8-4.15Q29.9-4.15 31.37-7.1 32.85-10.05 32.85-17.3L32.85-17.3Q32.85-24.45 31.37-27.45 29.9-30.45 26.8-30.45L26.8-30.45Q23.75-30.45 22.27-27.45 20.8-24.45 20.8-17.25L20.8-17.25ZM66.59 0L59.75 0 53.65-13.95 53.05-13.95 50.6-13.95 50.6 0 44.25 0 44.25-34.55 52.4-34.55Q64.9-34.55 64.9-24.4L64.9-24.4Q64.9-21.25 63.5-18.82 62.1-16.4 59.3-15.15L59.3-15.15 66.59 0ZM52.7-18.55Q55.65-18.55 56.97-19.95 58.3-21.35 58.3-24.4L58.3-24.4Q58.3-27.25 56.92-28.58 55.55-29.9 52.4-29.9L52.4-29.9 50.6-29.9 50.6-18.55 52.7-18.55ZM91.74 0L85.29 0 83.59-8.1 74.69-8.1 73.04 0 66.69 0 75.39-34.55 83.09-34.55 91.74 0ZM79.14-29.7L75.69-12.9 82.64-12.9 79.14-29.7Z" opacity="1" transform="matrix(1,0,0,1,0,0)" fill="#000000" class="undefined-text-0" data-fill-palette-color="primary" id="text-0"></path></svg></g></svg></g><g transform="matrix(1,0,0,1,0,141.2803731419655)"><svg viewBox="0 0 244.43135999999996 25.587697819504747" height="25.587697819504747" width="244.43135999999996"><g transform="matrix(1,0,0,1,0,0)"><svg width="244.43135999999996" viewBox="3.299999952316284 -35.900001525878906 426.0500183105469 44.60000228881836" height="25.587697819504747" data-palette-color="#111111"><path d="M23.35-8.95L23.35-8.95Q23.35-4.5 20.3-2.08 17.25 0.35 12.45 0.35L12.45 0.35Q7.15 0.35 3.45-1.8L3.45-1.8 3.45-6.15Q7.1-3.4 12.35-3.4L12.35-3.4Q15.5-3.4 17.3-4.8 19.1-6.2 19.1-8.85L19.1-8.85Q19.1-9.95 18.68-10.83 18.25-11.7 17.28-12.43 16.3-13.15 15.43-13.63 14.55-14.1 13.05-14.8L13.05-14.8Q12.75-14.95 12.15-15.2L12.15-15.2Q10-16.15 8.88-16.75 7.75-17.35 6.23-18.53 4.7-19.7 4-21.25 3.3-22.8 3.3-24.85L3.3-24.85Q3.3-29.15 6.38-31.58 9.45-34 14.1-34L14.1-34Q18.45-34 21.5-32.45L21.5-32.45 21.5-28.2Q18.45-30.2 14.2-30.2L14.2-30.2Q11.15-30.2 9.35-28.78 7.55-27.35 7.55-25.05L7.55-25.05Q7.55-23.85 8.03-22.9 8.5-21.95 9.7-21.13 10.9-20.3 11.75-19.88 12.6-19.45 14.4-18.65L14.4-18.65Q16.1-17.9 17-17.48 17.9-17.05 19.33-16.13 20.75-15.2 21.48-14.33 22.2-13.45 22.78-12.03 23.35-10.6 23.35-8.95ZM37.6-3.05L37.6-3.05Q40.3-3.05 41.9-4.58 43.5-6.1 43.5-8.45L43.5-8.45 43.5-11.7 39.1-11.7Q35.9-11.7 34.3-10.45 32.7-9.2 32.7-7.3 32.7-5.4 33.95-4.23 35.2-3.05 37.6-3.05ZM43.55 0L43.55-3Q41.6 0.25 36.45 0.25L36.45 0.25Q32.9 0.25 30.73-1.85 28.55-3.95 28.55-7.15L28.55-7.15Q28.55-10.8 31.33-12.83 34.1-14.85 38.9-14.85L38.9-14.85 43.5-14.85 43.5-16.15Q43.5-19.15 42.15-20.68 40.8-22.2 37.6-22.2L37.6-22.2Q33.55-22.2 30.4-20.05L30.4-20.05 30.4-24Q33.25-25.75 37.9-25.75L37.9-25.75Q47.45-25.75 47.45-16.05L47.45-16.05 47.45 0 43.55 0ZM58.6-25.35L58.6 0 54.65 0 54.65-25.35 58.6-25.35ZM58.45-35.15Q59.2-34.4 59.2-33.3 59.2-32.2 58.45-31.48 57.7-30.75 56.6-30.75 55.5-30.75 54.78-31.48 54.05-32.2 54.05-33.3 54.05-34.4 54.78-35.15 55.5-35.9 56.6-35.9 57.7-35.9 58.45-35.15ZM70-13.85L70 0 66.05 0 66.1-25.35 70-25.35 70-20.9Q72-25.6 76.9-25.6L76.9-25.6Q77.8-25.6 78.3-25.5L78.3-25.5 78.3-21.6Q77.25-21.95 76.15-21.95L76.15-21.95Q73.5-21.95 71.75-19.5 70-17.05 70-13.85L70-13.85ZM90.15-3.05L90.15-3.05Q92.85-3.05 94.45-4.58 96.05-6.1 96.05-8.45L96.05-8.45 96.05-11.7 91.65-11.7Q88.45-11.7 86.85-10.45 85.25-9.2 85.25-7.3 85.25-5.4 86.5-4.23 87.75-3.05 90.15-3.05ZM96.1 0L96.1-3Q94.15 0.25 89 0.25L89 0.25Q85.45 0.25 83.28-1.85 81.1-3.95 81.1-7.15L81.1-7.15Q81.1-10.8 83.88-12.83 86.65-14.85 91.45-14.85L91.45-14.85 96.05-14.85 96.05-16.15Q96.05-19.15 94.7-20.68 93.35-22.2 90.15-22.2L90.15-22.2Q86.1-22.2 82.95-20.05L82.95-20.05 82.95-24Q85.8-25.75 90.45-25.75L90.45-25.75Q100-25.75 100-16.05L100-16.05 100 0 96.1 0ZM127-17.45L127 0 123.05 0 123.05-16.4Q123.05-19.2 121.63-20.68 120.2-22.15 117.9-22.15L117.9-22.15Q115.05-22.15 112.98-19.95 110.9-17.75 110.9-13.85L110.9-13.85 110.9 0 107 0 107-25.35 110.9-25.35 110.9-20.95Q113.15-25.7 118.9-25.7L118.9-25.7Q122.6-25.7 124.8-23.45 127-21.2 127-17.45L127-17.45ZM155.65-12.4L155.65-12.4 150.45-12.4 150.45 0 146.4 0 146.4-33.7 155.25-33.7Q161.1-33.7 164.48-30.68 167.85-27.65 167.85-22.85L167.85-22.85Q167.85-18.35 164.5-15.38 161.15-12.4 155.65-12.4ZM155.3-30.25L155.3-30.25 150.45-30.25 150.45-15.85 155.65-15.85Q159.45-15.85 161.6-17.82 163.75-19.8 163.75-22.85L163.75-22.85Q163.75-26.25 161.55-28.25 159.35-30.25 155.3-30.25ZM193.15-25.35L193.15 0 189.2 0 189.2-4.4Q187.2 0.3 181.25 0.3L181.25 0.3Q177.5 0.3 175.33-1.93 173.15-4.15 173.15-7.9L173.15-7.9 173.15-25.35 177.1-25.35 177.1-8.9Q177.1-6.15 178.5-4.7 179.9-3.25 182.3-3.25L182.3-3.25Q185.45-3.25 187.33-5.45 189.2-7.65 189.2-11.4L189.2-11.4 189.2-25.35 193.15-25.35ZM204.55-3.75L204.55 0 200.6 0 200.6-35.35 204.55-35.35 204.55-21.55Q207.3-25.75 212.25-25.75L212.25-25.75Q217.05-25.75 220.1-22.08 223.15-18.4 223.15-12.45L223.15-12.45Q223.15-7.1 220.28-3.35 217.4 0.4 212.35 0.4L212.35 0.4Q207.25 0.4 204.55-3.75L204.55-3.75ZM204.55-12.85L204.55-12.85Q204.55-7.8 206.73-5.5 208.9-3.2 212-3.2L212-3.2Q215.05-3.2 217.05-5.75 219.05-8.3 219.05-12.4L219.05-12.4Q219.05-17.1 216.98-19.63 214.9-22.15 211.75-22.15L211.75-22.15Q209.05-22.15 206.8-19.9 204.55-17.65 204.55-12.85ZM233.1-35.35L233.1 0 229.15 0 229.15-35.35 233.1-35.35ZM244.75-25.35L244.75 0 240.8 0 240.8-25.35 244.75-25.35ZM244.6-35.15Q245.35-34.4 245.35-33.3 245.35-32.2 244.6-31.48 243.85-30.75 242.75-30.75 241.65-30.75 240.93-31.48 240.2-32.2 240.2-33.3 240.2-34.4 240.93-35.15 241.65-35.9 242.75-35.9 243.85-35.9 244.6-35.15ZM269.7-4.65L269.7-0.9Q267.3 0.55 263.8 0.55L263.8 0.55Q257.8 0.55 254.28-3.28 250.75-7.1 250.75-12.6L250.75-12.6Q250.75-18 254.28-21.9 257.8-25.8 263.9-25.8L263.9-25.8Q267.15-25.8 269.7-24.4L269.7-24.4 269.7-20.65Q267.4-22.2 264.3-22.2L264.3-22.2Q260-22.2 257.43-19.43 254.85-16.65 254.85-12.55L254.85-12.55Q254.9-8.45 257.35-5.73 259.8-3 264.3-3L264.3-3Q267.2-3 269.7-4.65L269.7-4.65ZM306.6-3.65L306.6 0 288.2 0 288.2-33.7 292.25-33.7 292.25-3.65 306.6-3.65ZM316-25.35L316 0 312.05 0 312.05-25.35 316-25.35ZM315.85-35.15Q316.6-34.4 316.6-33.3 316.6-32.2 315.85-31.48 315.1-30.75 314-30.75 312.9-30.75 312.18-31.48 311.45-32.2 311.45-33.3 311.45-34.4 312.18-35.15 312.9-35.9 314-35.9 315.1-35.9 315.85-35.15ZM327.6-3.75L327.6 0 323.65 0 323.65-35.35 327.6-35.35 327.6-21.55Q330.35-25.75 335.3-25.75L335.3-25.75Q340.1-25.75 343.15-22.08 346.2-18.4 346.2-12.45L346.2-12.45Q346.2-7.1 343.33-3.35 340.45 0.4 335.4 0.4L335.4 0.4Q330.3 0.4 327.6-3.75L327.6-3.75ZM327.6-12.85L327.6-12.85Q327.6-7.8 329.78-5.5 331.95-3.2 335.05-3.2L335.05-3.2Q338.1-3.2 340.1-5.75 342.1-8.3 342.1-12.4L342.1-12.4Q342.1-17.1 340.03-19.63 337.95-22.15 334.8-22.15L334.8-22.15Q332.1-22.15 329.85-19.9 327.6-17.65 327.6-12.85ZM355.9-13.85L355.9 0 351.95 0 352-25.35 355.9-25.35 355.9-20.9Q357.9-25.6 362.8-25.6L362.8-25.6Q363.7-25.6 364.2-25.5L364.2-25.5 364.2-21.6Q363.15-21.95 362.05-21.95L362.05-21.95Q359.4-21.95 357.65-19.5 355.9-17.05 355.9-13.85L355.9-13.85ZM376.05-3.05L376.05-3.05Q378.75-3.05 380.35-4.58 381.95-6.1 381.95-8.45L381.95-8.45 381.95-11.7 377.55-11.7Q374.35-11.7 372.75-10.45 371.15-9.2 371.15-7.3 371.15-5.4 372.4-4.23 373.65-3.05 376.05-3.05ZM382 0L382-3Q380.05 0.25 374.9 0.25L374.9 0.25Q371.35 0.25 369.18-1.85 367-3.95 367-7.15L367-7.15Q367-10.8 369.78-12.83 372.55-14.85 377.35-14.85L377.35-14.85 381.95-14.85 381.95-16.15Q381.95-19.15 380.6-20.68 379.25-22.2 376.05-22.2L376.05-22.2Q372-22.2 368.85-20.05L368.85-20.05 368.85-24Q371.7-25.75 376.35-25.75L376.35-25.75Q385.9-25.75 385.9-16.05L385.9-16.05 385.9 0 382 0ZM396.8-13.85L396.8 0 392.85 0 392.9-25.35 396.8-25.35 396.8-20.9Q398.8-25.6 403.7-25.6L403.7-25.6Q404.6-25.6 405.1-25.5L405.1-25.5 405.1-21.6Q404.05-21.95 402.95-21.95L402.95-21.95Q400.3-21.95 398.55-19.5 396.8-17.05 396.8-13.85L396.8-13.85ZM429.35-25.35L420.2-0.65Q418.25 4.5 415.58 6.6 412.9 8.7 409.45 8.7L409.45 8.7Q408.15 8.7 407.35 8.45L407.35 8.45 407.35 4.9Q408.1 5.1 409.05 5.1L409.05 5.1Q414.1 5.1 416.2-0.65L416.2-0.65 405.95-25.35 410.4-25.35 413.7-17 418.15-5.5Q418.55-6.8 422.15-17L422.15-17 425.1-25.35 429.35-25.35Z" opacity="1" transform="matrix(1,0,0,1,0,0)" fill="#000000" class="undefined-text-1" data-fill-palette-color="secondary" id="text-1"></path></svg></g></svg></g></svg></g></svg></g></svg></g></svg></g></svg></g><path d="M131.689 41.215L131.689 0 378.889 0 378.889 247.2 131.689 247.2 131.689 205.985 141.125 205.985 141.125 237.763 369.452 237.763 369.452 9.437 141.125 9.437 141.125 41.215Z" fill="#000000" stroke="transparent" data-fill-palette-color="primary"></path></svg></g><defs></defs></svg><rect width="395.52" height="247.2" fill="none" stroke="none" visibility="hidden"></rect></g></svg></g></svg>